# xmcd
#
# Track frame offsets: 
#        150
#        18777
#        37163
#        55205
#        74484
#        94101
#        122245
#        140999
#        159631
#        177405
#        196440
#        216959
#        224601
#        245403
#        264988
#        291783
#        319079
#
# Disc length: 4468 seconds
#
# Revision: 0
# Processed by: cddbd v1.5.2PL0 Copyright (c) Steve Scherf et al.
# Submitted via: ExactAudioCopyFreeDBPlugin 1.0
#
DISCID=13117211
DTITLE=D'Angelo - The Best So Far...
DYEAR=2008
DGENRE=R&B
TTITLE0=D'Angelo  - Lady
TTITLE1=D'Angelo  - Brown Sugar
TTITLE2=D'Angelo  - Cruisin
TTITLE3=D'Angelo  - Me And Those Dreamin' Eyes Of Mine
TTITLE4=D'Angelo  - Smooth
TTITLE5=D'Angelo  - I Found My Smile Again
TTITLE6=D'Angelo  - Girl You Need A Change Of Mind
TTITLE7=D'Angelo  - She's Always In My Hair
TTITLE8=D'Angelo  - Can't Hide Love (Live)
TTITLE9=D'Angelo  - Heaven Must Be Like This
TTITLE10=D'Angelo  - Your Precious Love Feat. Eryka Badu
TTITLE11=D'Angelo  - Devil's Pie (A Cappella Interlude)
TTITLE12=D'Angelo  - Left And Right Feat. Method Man and Redman
TTITLE13=D'Angelo  - Untitled (How Does It Feel) 
TTITLE14=D'Angelo  - Send It On
TTITLE15=D'Angelo  - Feel Like Makin' Love
TTITLE16=D'Angelo  - Be Here Feat. Raphael Sadiq
EXTD=
EXTT0=
EXTT1=
EXTT2=
EXTT3=
EXTT4=
EXTT5=
EXTT6=
EXTT7=
EXTT8=
EXTT9=
EXTT10=
EXTT11=
EXTT12=
EXTT13=
EXTT14=
EXTT15=
EXTT16=
PLAYORDER=
